<svg xmlns="http://www.w3.org/2000/svg" width="32" height="32" fill="none" xmlns:v="https://vecta.io/nano"><path fill="#6045ff" d="M5.44 8.32a3.844 3.844 0 0 0 3.84-3.84A3.844 3.844 0 0 0 5.44.64 3.844 3.844 0 0 0 1.6 4.48a3.844 3.844 0 0 0 3.84 3.84zm0-5.76a1.92 1.92 0 1 1 0 3.84 1.922 1.922 0 0 1-1.92-1.92 1.92 1.92 0 0 1 1.92-1.92zm24-1.92H14.08a1.92 1.92 0 0 0-1.92 1.92v6.72H5.44a4.805 4.805 0 0 0-4.8 4.8v14.4a2.883 2.883 0 0 0 2.88 2.88 2.87 2.87 0 0 0 1.92-.735 2.87 2.87 0 0 0 1.92.735 2.883 2.883 0 0 0 2.88-2.88V15.04h1.92v2.88a1.92 1.92 0 0 0 1.92 1.92h3.51l-2.51 8.364a.96.96 0 1 0 1.84.551l2.674-8.915H20.8v6.72a.96.96 0 1 0 1.92 0v-6.72h1.206l2.675 8.915a.96.96 0 0 0 1.84-.55l-2.51-8.365h3.51c1.058 0 1.92-.861 1.92-1.92V2.56c0-1.059-.862-1.92-1.92-1.92zM9.28 13.12a.96.96 0 0 0-.96.96v14.4a.961.961 0 0 1-1.92 0V20.8a.96.96 0 1 0-1.92 0v7.68a.961.961 0 0 1-1.92 0v-14.4a2.883 2.883 0 0 1 2.88-2.88h8.64a.961.961 0 0 1 0 1.92h-4.8zm20.16 4.8H14.08v-2.88a2.883 2.883 0 0 0 2.88-2.88 2.883 2.883 0 0 0-2.88-2.88V2.56h15.36v15.36z"/></svg>