<svg xmlns="http://www.w3.org/2000/svg" width="80" height="80" fill="none" xmlns:v="https://vecta.io/nano"><g clip-path="url(#A)" fill="#6045ff"><path d="M77.656 12.567c-.1 0-1.086.005-2.677.141V2.358c0-1.294-1.049-2.344-2.344-2.344C58.411-.339 44.863 10.704 40 24.183 35.135 10.703 21.59-.337 7.364.015 6.07.015 5.02 1.064 5.02 2.358v10.349c-1.591-.136-2.577-.141-2.677-.141C1.049 12.567 0 13.616 0 14.91v41.422c0 1.292 1.049 2.341 2.341 2.344 9.746.046 25.536 5.005 30.542 16.277 3.223 6.724 11.017 6.72 14.238-.008 5.01-11.282 20.84-16.227 30.535-16.269 1.294 0 2.344-1.049 2.344-2.344V14.91c0-1.295-1.049-2.344-2.344-2.344zm-45.02 53.779c-6.088-7.292-18.922-11.78-27.948-12.245V17.387c10.453.688 23.468 6.138 27.948 15.657v33.301zM16.095 14.869a52.4 52.4 0 0 0-6.386-1.543V4.803c13.451.757 25.54 13.903 27.557 26.987a7.59 7.59 0 0 1-.186-.346c-3.848-7.774-11.105-13.506-20.985-16.575zm26.582 58.444c-1.565 2.667-3.789 2.666-5.354 0V38.042a6.8 6.8 0 0 0 5.354 0v35.271zm.245-41.873a7.46 7.46 0 0 1-.187.348C44.753 18.704 56.841 5.561 70.292 4.803v8.523c-11.346 1.724-23.047 8.598-27.37 18.114zm32.39 22.662c-9.005.454-21.891 4.971-27.948 12.245V33.045c4.481-9.523 17.505-14.971 27.948-15.657v36.714zm-22.22-17.563c.48.747 1.847 1.598 3.239.703 3.338-2.148 7.319-3.79 11.833-4.878 1.258-.303 2.032-1.569 1.729-2.828s-1.569-2.033-2.828-1.729c-5.025 1.211-9.49 3.06-13.271 5.493-1.088.7-1.403 2.151-.702 3.239zm13.973 5.076c-5.025 1.211-9.49 3.06-13.271 5.493-1.089.7-1.403 2.151-.703 3.239.48.747 1.847 1.599 3.239.703 3.338-2.148 7.319-3.789 11.833-4.878 1.258-.303 2.032-1.569 1.729-2.828s-1.569-2.033-2.828-1.729z"/></g><defs><clipPath id="A"><path fill="#fff" d="M0 0h80v80H0z"/></clipPath></defs></svg>