<svg xmlns="http://www.w3.org/2000/svg" width="80" height="80" fill="none" xmlns:v="https://vecta.io/nano"><path d="M40 4C26.766 4 16 14.766 16 28c0 6.525 2.705 12.822 7.4 17.258 1.397 1.349 2.198 3.237 2.2 5.178V59.2c0 1.923.749 3.731 2.11 5.09.77.771 1.694 1.32 2.69 1.673V68.8a7.21 7.21 0 0 0 7.2 7.2h4.8a7.21 7.21 0 0 0 7.2-7.2v-2.837c.998-.353 1.921-.902 2.69-1.673 1.361-1.359 2.11-3.167 2.11-5.09l.053-8.765c0-1.929.794-3.802 2.178-5.138A23.79 23.79 0 0 0 64 28C64 14.766 53.234 4 40 4zm2.4 67.2h-4.8c-1.323 0-2.4-1.077-2.4-2.4v-2.4h9.6v2.4c0 1.323-1.077 2.4-2.4 2.4zm6.497-10.303a2.42 2.42 0 0 1-1.697.703H32.8a2.42 2.42 0 0 1-2.4-2.4v-2.4h19.202l-.002 2.4a2.42 2.42 0 0 1-.703 1.697zm4.404-19.054c-2.319 2.237-3.648 5.37-3.646 8.494a65.53 65.53 0 0 0-.03 1.664H42.4V36.194l8.897-8.897a2.4 2.4 0 0 0-3.394-3.394L40 31.806l-7.903-7.903a2.4 2.4 0 0 0-3.394 3.394l8.897 8.897V52h-7.2v-1.565-.001c-.001-3.237-1.337-6.381-3.684-8.647C22.901 38.183 20.8 33.287 20.8 28c0-10.586 8.614-19.2 19.2-19.2S59.2 17.414 59.2 28c0 5.267-2.094 10.182-5.899 13.842zM4 30.4a2.4 2.4 0 1 1 0-4.8h4.8a2.4 2.4 0 1 1 0 4.8H4zM78.4 28a2.4 2.4 0 0 1-2.4 2.4h-4.8a2.4 2.4 0 0 1 0-4.8H76a2.4 2.4 0 0 1 2.4 2.4zM12.897 11.903a2.4 2.4 0 0 1 0 3.394 2.39 2.39 0 0 1-3.394 0l-4.8-4.8a2.4 2.4 0 0 1 3.394-3.394l4.8 4.8zm54.206 3.394a2.4 2.4 0 0 1 0-3.394l4.8-4.8a2.4 2.4 0 0 1 3.394 3.394l-4.8 4.8a2.39 2.39 0 0 1-3.394 0zM12.897 40.703a2.4 2.4 0 0 1 0 3.394l-4.8 4.8a2.39 2.39 0 0 1-3.394 0 2.4 2.4 0 0 1 0-3.394l4.8-4.8a2.4 2.4 0 0 1 3.394 0zm62.4 4.8a2.4 2.4 0 0 1 0 3.394 2.39 2.39 0 0 1-3.394 0l-4.8-4.8a2.4 2.4 0 0 1 3.394-3.394l4.8 4.8z" fill="#6045ff"/></svg>