<svg xmlns="http://www.w3.org/2000/svg" width="24" height="32" fill="none" xmlns:v="https://vecta.io/nano"><path fill="#6045ff" d="M20.64.64H3.36A2.883 2.883 0 0 0 .48 3.52v24.96a2.883 2.883 0 0 0 2.88 2.88h17.28a2.883 2.883 0 0 0 2.88-2.88V3.52A2.883 2.883 0 0 0 20.64.64zm.96 27.84a.96.96 0 0 1-.96.96H3.36a.96.96 0 0 1-.96-.96V3.52a.96.96 0 0 1 .96-.96h17.28a.96.96 0 0 1 .96.96v24.96zm-3.84-24H6.24A1.92 1.92 0 0 0 4.32 6.4v3.84a1.92 1.92 0 0 0 1.92 1.92h11.52a1.92 1.92 0 0 0 1.92-1.92V6.4a1.92 1.92 0 0 0-1.92-1.92zM6.24 10.24V6.4h11.52l.001 3.84H6.24zm2.88 3.84H6.24A1.92 1.92 0 0 0 4.32 16v1.92a1.92 1.92 0 0 0 1.92 1.92h2.88a1.92 1.92 0 0 0 1.92-1.92V16a1.92 1.92 0 0 0-1.92-1.92zm0 3.84H6.24V16h2.88v1.92zm8.64-3.84h-2.88A1.92 1.92 0 0 0 12.96 16v1.92a1.92 1.92 0 0 0 1.92 1.92h2.88a1.92 1.92 0 0 0 1.92-1.92V16a1.92 1.92 0 0 0-1.92-1.92zm0 3.84h-2.88V16h2.88v1.92zm-8.64 3.84H6.24a1.92 1.92 0 0 0-1.92 1.92v1.92a1.92 1.92 0 0 0 1.92 1.92h2.88a1.92 1.92 0 0 0 1.92-1.92v-1.92a1.92 1.92 0 0 0-1.92-1.92zm0 3.84H6.24v-1.92h2.88v1.92zm8.64-3.84h-2.88a1.92 1.92 0 0 0-1.92 1.92v1.92a1.92 1.92 0 0 0 1.92 1.92h2.88a1.92 1.92 0 0 0 1.92-1.92v-1.92a1.92 1.92 0 0 0-1.92-1.92zm0 3.84h-2.88v-1.92h2.88v1.92z"/></svg>