<svg width="80" height="80" viewBox="0 0 80 80" fill="none" xmlns="http://www.w3.org/2000/svg">
<g clip-path="url(#clip0_199_496)">
<path d="M80 45.0214C80 41.7796 77.8938 39.0221 74.9786 38.0405V28.5313L78.5265 27.1121C80.4788 26.3373 80.478 23.5335 78.5265 22.7594L40.8658 7.69506C40.307 7.47144 39.6836 7.47144 39.1246 7.69506L1.4639 22.7594C-0.488359 23.5341 -0.487578 26.3379 1.4639 27.1121L19.8644 34.4722L17.5846 52.2555C17.4571 53.25 17.9763 54.2156 18.8764 54.6577C19.7766 55.0996 20.8579 54.9202 21.5671 54.2111C25.7198 50.0587 27.7358 51.4362 31.3958 53.9368C37.5804 58.5408 42.4214 58.5317 48.5947 53.9367C52.2546 51.4361 54.2708 50.0585 58.4235 54.2111C59.1325 54.9201 60.214 55.0998 61.1141 54.6577C62.0143 54.2158 62.5335 53.2502 62.406 52.2555L60.1262 34.4722L70.2905 30.4064V38.0404C63.8921 40.1981 63.5627 49.1861 69.7767 51.8094L65.339 69.5599C65.164 70.2602 65.3214 71.0021 65.7655 71.5709C66.2097 72.1399 66.8912 72.4725 67.613 72.4725H77.656C78.3778 72.4725 79.0592 72.1399 79.5035 71.5709C79.9476 71.002 80.105 70.2602 79.93 69.5599L75.4924 51.8095C78.1384 50.6914 80 48.0697 80 45.0214V45.0214ZM45.95 50.066C41.0972 53.578 38.8895 53.5747 34.0404 50.066C31.1881 48.1171 27.5339 45.6207 22.9111 47.5731L24.3602 36.2705L39.1246 42.1762C39.6835 42.3998 40.3068 42.3998 40.8658 42.1762L55.6302 36.2705L57.0791 47.5728C52.4569 45.6204 48.8024 48.1171 45.95 50.066ZM39.9952 37.4753L8.64585 24.9357L39.9951 12.3959L71.3444 24.9357L39.9952 37.4753ZM70.6151 67.7844L72.6344 59.7073L74.6537 67.7844H70.6151ZM72.6344 47.6987C71.1581 47.6987 69.9571 46.4976 69.9571 45.0214C70.0916 41.4744 75.1778 41.4753 75.3119 45.0214C75.3119 46.4976 74.1108 47.6987 72.6344 47.6987Z" fill="#6045FF"/>
</g>
<defs>
<clipPath id="clip0_199_496">
<rect width="80" height="80" fill="white"/>
</clipPath>
</defs>
</svg>
