<svg xmlns="http://www.w3.org/2000/svg" width="26" height="26" fill="none" xmlns:v="https://vecta.io/nano"><path d="M24.731 4.924c-.171-.143-.397-.203-.614-.162L22 5.154V2.5a.75.75 0 0 0-.856-.742c-.213.03-4.96.744-8.144 4.102-3.185-3.358-7.931-4.072-8.144-4.102A.75.75 0 0 0 4 2.5v2.654l-2.116-.391c-.218-.039-.443.02-.614.162A.75.75 0 0 0 1 5.5v15.75a.75.75 0 0 0 .675.746c.074.007 7.438.757 11.046 2.2.01.004.021.003.031.006.079.028.161.047.248.047s.168-.02.247-.047c.01-.003.021-.002.031-.006 3.608-1.443 10.972-2.193 11.046-2.2A.75.75 0 0 0 25 21.25V5.5a.75.75 0 0 0-.27-.576zM20.5 3.421v14.261c-1.299.395-4.514 1.54-6.75 3.708V7.289c2.079-2.455 5.241-3.497 6.75-3.868zm-15 0c1.51.371 4.67 1.414 6.75 3.869v14.101c-2.236-2.168-5.45-3.313-6.75-3.708V3.421zM2.5 6.4l1.5.28v11.57a.75.75 0 0 0 .568.728c.045.011 3.595.931 6.099 3.01-3.051-.774-6.681-1.24-8.167-1.411V6.4zm21 14.177c-1.486.171-5.116.636-8.167 1.41 2.505-2.079 6.054-2.999 6.1-3.01A.75.75 0 0 0 22 18.25V6.68l1.5-.28v14.177z" fill="#fff"/></svg>