<svg xmlns="http://www.w3.org/2000/svg" width="56" height="56" fill="none" xmlns:v="https://vecta.io/nano"><g opacity=".2" clip-path="url(#A)" fill="#ffa03a"><path d="M23.8 5.578H1.4a1.4 1.4 0 0 0-1.4 1.4v22.4a1.4 1.4 0 0 0 1.4 1.4h18.173c.027 8.4-6.17 14-12.573 14a1.4 1.4 0 0 0-1.4 1.4v2.8a1.4 1.4 0 0 0 1.4 1.4c8.396 0 18.2-5.6 18.2-19.6v-23.8a1.4 1.4 0 0 0-1.4-1.4h0zm30.8 0H32.2a1.4 1.4 0 0 0-1.4 1.4v22.4a1.4 1.4 0 0 0 1.4 1.4h18.173c.027 8.4-6.17 14-12.573 14a1.4 1.4 0 0 0-1.4 1.4v2.8a1.4 1.4 0 0 0 1.4 1.4c8.396 0 18.2-5.6 18.2-19.6v-23.8a1.4 1.4 0 0 0-1.4-1.4h0z"/></g><defs><clipPath id="A"><path fill="#fff" d="M0 0h56v56H0z"/></clipPath></defs></svg>