<svg width="136" height="25" viewBox="0 0 136 25" fill="none" xmlns="http://www.w3.org/2000/svg">
<path d="M17.9184 14.82C17.6594 15.071 17.5404 15.434 17.5994 15.79L18.4884 20.71C18.5634 21.127 18.3874 21.549 18.0384 21.79C17.6964 22.04 17.2414 22.07 16.8684 21.87L12.4394 19.56C12.2854 19.478 12.1144 19.434 11.9394 19.429H11.6684C11.5744 19.443 11.4824 19.473 11.3984 19.519L6.96839 21.84C6.74939 21.95 6.50139 21.989 6.25839 21.95C5.66639 21.838 5.27139 21.274 5.36839 20.679L6.25839 15.759C6.31739 15.4 6.19839 15.035 5.93939 14.78L2.32839 11.28C2.02639 10.987 1.92139 10.547 2.05939 10.15C2.19339 9.754 2.53539 9.465 2.94839 9.4L7.91839 8.679C8.29639 8.64 8.62839 8.41 8.79839 8.07L10.9884 3.58C11.0404 3.48 11.1074 3.388 11.1884 3.31L11.2784 3.24C11.3254 3.188 11.3794 3.145 11.4394 3.11L11.5484 3.07L11.7184 3H12.1394C12.5154 3.039 12.8464 3.264 13.0194 3.6L15.2384 8.07C15.3984 8.397 15.7094 8.624 16.0684 8.679L21.0384 9.4C21.4584 9.46 21.8094 9.75 21.9484 10.15C22.0794 10.551 21.9664 10.991 21.6584 11.28L17.9184 14.82Z" fill="#FFA03A"/>
<path d="M45.9184 14.82C45.6594 15.071 45.5404 15.434 45.5994 15.79L46.4884 20.71C46.5634 21.127 46.3874 21.549 46.0384 21.79C45.6964 22.04 45.2414 22.07 44.8684 21.87L40.4394 19.56C40.2854 19.478 40.1144 19.434 39.9394 19.429H39.6684C39.5744 19.443 39.4824 19.473 39.3984 19.519L34.9684 21.84C34.7494 21.95 34.5014 21.989 34.2584 21.95C33.6664 21.838 33.2714 21.274 33.3684 20.679L34.2584 15.759C34.3174 15.4 34.1984 15.035 33.9394 14.78L30.3284 11.28C30.0264 10.987 29.9214 10.547 30.0594 10.15C30.1934 9.754 30.5354 9.465 30.9484 9.4L35.9184 8.679C36.2964 8.64 36.6284 8.41 36.7984 8.07L38.9884 3.58C39.0404 3.48 39.1074 3.388 39.1884 3.31L39.2784 3.24C39.3254 3.188 39.3794 3.145 39.4394 3.11L39.5484 3.07L39.7184 3H40.1394C40.5154 3.039 40.8464 3.264 41.0194 3.6L43.2384 8.07C43.3984 8.397 43.7094 8.624 44.0684 8.679L49.0384 9.4C49.4584 9.46 49.8094 9.75 49.9484 10.15C50.0794 10.551 49.9664 10.991 49.6584 11.28L45.9184 14.82Z" fill="#FFA03A"/>
<path d="M73.9184 14.82C73.6594 15.071 73.5404 15.434 73.5994 15.79L74.4884 20.71C74.5634 21.127 74.3874 21.549 74.0384 21.79C73.6964 22.04 73.2414 22.07 72.8684 21.87L68.4394 19.56C68.2854 19.478 68.1144 19.434 67.9394 19.429H67.6684C67.5744 19.443 67.4824 19.473 67.3984 19.519L62.9684 21.84C62.7494 21.95 62.5014 21.989 62.2584 21.95C61.6664 21.838 61.2714 21.274 61.3684 20.679L62.2584 15.759C62.3174 15.4 62.1984 15.035 61.9394 14.78L58.3284 11.28C58.0264 10.987 57.9214 10.547 58.0594 10.15C58.1934 9.754 58.5354 9.465 58.9484 9.4L63.9184 8.679C64.2964 8.64 64.6284 8.41 64.7984 8.07L66.9884 3.58C67.0404 3.48 67.1074 3.388 67.1884 3.31L67.2784 3.24C67.3254 3.188 67.3794 3.145 67.4394 3.11L67.5484 3.07L67.7184 3H68.1394C68.5154 3.039 68.8464 3.264 69.0194 3.6L71.2384 8.07C71.3984 8.397 71.7094 8.624 72.0684 8.679L77.0384 9.4C77.4584 9.46 77.8094 9.75 77.9484 10.15C78.0794 10.551 77.9664 10.991 77.6584 11.28L73.9184 14.82Z" fill="#FFA03A"/>
<path d="M101.918 14.82C101.659 15.071 101.54 15.434 101.599 15.79L102.488 20.71C102.563 21.127 102.387 21.549 102.038 21.79C101.696 22.04 101.241 22.07 100.868 21.87L96.4394 19.56C96.2854 19.478 96.1144 19.434 95.9394 19.429H95.6684C95.5744 19.443 95.4824 19.473 95.3984 19.519L90.9684 21.84C90.7494 21.95 90.5014 21.989 90.2584 21.95C89.6664 21.838 89.2714 21.274 89.3684 20.679L90.2584 15.759C90.3174 15.4 90.1984 15.035 89.9394 14.78L86.3284 11.28C86.0264 10.987 85.9214 10.547 86.0594 10.15C86.1934 9.754 86.5354 9.465 86.9484 9.4L91.9184 8.679C92.2964 8.64 92.6284 8.41 92.7984 8.07L94.9884 3.58C95.0404 3.48 95.1074 3.388 95.1884 3.31L95.2784 3.24C95.3254 3.188 95.3794 3.145 95.4394 3.11L95.5484 3.07L95.7184 3H96.1394C96.5154 3.039 96.8464 3.264 97.0194 3.6L99.2384 8.07C99.3984 8.397 99.7094 8.624 100.068 8.679L105.038 9.4C105.458 9.46 105.809 9.75 105.948 10.15C106.079 10.551 105.966 10.991 105.658 11.28L101.918 14.82Z" fill="#FFA03A"/>
<path opacity="0.4" d="M124.976 3.61361L127.203 8.08789C127.367 8.41205 127.68 8.63717 128.041 8.68719L133.042 9.41556C133.334 9.45658 133.599 9.61066 133.778 9.84578C133.955 10.0779 134.031 10.3721 133.988 10.6612C133.953 10.9013 133.84 11.1234 133.667 11.2935L130.043 14.8063C129.778 15.0514 129.658 15.4146 129.722 15.7698L130.615 20.7083C130.71 21.3046 130.314 21.8669 129.722 21.98C129.478 22.019 129.228 21.978 129.008 21.8659L124.547 19.5417C124.216 19.3746 123.825 19.3746 123.494 19.5417L119.033 21.8659C118.485 22.157 117.806 21.9589 117.501 21.4187C117.388 21.2036 117.348 20.9584 117.385 20.7193L118.277 15.7798C118.341 15.4256 118.22 15.0604 117.956 14.8153L114.332 11.3045C113.901 10.8883 113.888 10.203 114.303 9.77175C114.312 9.76274 114.322 9.75274 114.332 9.74273C114.504 9.56764 114.73 9.45658 114.974 9.42757L119.975 8.6982C120.335 8.64717 120.648 8.42406 120.813 8.09789L122.96 3.61361C123.151 3.22942 123.547 2.9903 123.977 3.0003H124.111C124.484 3.04533 124.809 3.27644 124.976 3.61361Z" fill="#FFA03A"/>
<path d="M123.992 19.4171C123.798 19.4231 123.61 19.4752 123.44 19.5682L119.001 21.8871C118.458 22.1464 117.808 21.9452 117.503 21.4258C117.39 21.2136 117.349 20.9704 117.387 20.7322L118.274 15.8032C118.334 15.4449 118.214 15.0806 117.953 14.8284L114.328 11.3185C113.898 10.8971 113.89 10.2056 114.311 9.77421C114.317 9.76821 114.322 9.7632 114.328 9.7582C114.5 9.58806 114.721 9.47597 114.96 9.44094L119.965 8.70433C120.328 8.6583 120.642 8.43211 120.802 8.10384L122.978 3.56312C123.184 3.19682 123.581 2.97864 124 3.00166C123.992 3.2989 123.992 19.215 123.992 19.4171Z" fill="#FFA03A"/>
</svg>
